A young couple out for a walk decide to take a stroll through a large cemetery. As darkness begins to fall they realize they can't find their way out, and soon their fears begin to overtake them.

General
Unique ID                                : 235927674314903903684839952532871038003 (0xB17E046BA0BD6CC891146DE25A87C433)
Complete name                            : Jean Rollin-The Iron Rose (1973).mkv
Format                                   : Matroska
Format version                           : Version 2
File size                                : 4.37 GiB
Duration                                 : 1h 20mn
Overall bit rate                         : 7 771 Kbps
Encoded date                             : UTC 2012-02-19 06:04:57
Writing application                      : mkvmerge v5.0.1 ('Es ist Sommer') built on Oct  9 2011 11:55:43
Writing library                          : libebml v1.2.2 + libmatroska v1.3.0

Video
ID                                       : 1
Format                                   : AVC
Format/Info                              : Advanced Video Codec
Format profile                           : High@L4.1
Format settings, CABAC                   : Yes
Format settings, ReFrames                : 10 frames
Codec ID                                 : V_MPEG4/ISO/AVC
Duration                                 : 1h 20mn
Bit rate                                 : 7 320 Kbps
Width                                    : 1 216 pixels
Height                                   : 720 pixels
Display aspect ratio                     : 1.689
Frame rate mode                          : Constant
Frame rate                               : 23.976 fps
Color space                              : YUV
Chroma subsampling                       : 4:2:0
Bit depth                                : 8 bits
Scan type                                : Progressive
Bits/(Pixel*Frame)                       : 0.349
Stream size                              : 4.03 GiB (92%)
Writing library                          : x264 core 120 r2146+650 183470d
Encoding settings                        : cabac=1 / ref=10 / deblock=1:-3:-3 / analyse=0x3:0x113 / me=umh / subme=11 / psy=1 / fade_compensate=0.00 / psy_rd=0.99:0.00 / mixed_ref=1 / me_range=48 / chroma_me=1 / trellis=2 / 8x8dct=1 / cqm=0 / deadzone=21,11 / fast_pskip=0 / chroma_qp_offset=-2 / threads=12 / sliced_threads=0 / nr=0 / decimate=1 / interlaced=0 / bluray_compat=0 / constrained_intra=0 / fgo=0 / bframes=6 / b_pyramid=2 / b_adapt=2 / b_bias=0 / direct=3 / weightb=1 / open_gop=0 / weightp=2 / keyint=240 / keyint_min=24 / scenecut=40 / intra_refresh=0 / rc_lookahead=125 / rc=2pass / mbtree=1 / bitrate=7320 / ratetol=1.0 / qcomp=0.60 / qpmin=0 / qpmax=69 / qpstep=4 / cplxblur=20.0 / qblur=0.5 / vbv_maxrate=50000 / vbv_bufsize=50000 / nal_hrd=none / ip_ratio=1.40 / aq=2:1.00
Default                                  : Yes
Forced                                   : No
Color primaries                          : BT.709
Transfer characteristics                 : BT.709
Matrix coefficients                      : BT.709

Audio
ID                                       : 2
Format                                   : AC-3
Format/Info                              : Audio Coding 3
Mode extension                           : CM (complete main)
Format settings, Endianness              : Big
Codec ID                                 : A_AC3
Duration                                 : 1h 20mn
Bit rate mode                            : Constant
Bit rate                                 : 448 Kbps
Channel(s)                               : 2 channels
Channel positions                        : Front: L R
Sampling rate                            : 48.0 KHz
Bit depth                                : 16 bits
Compression mode                         : Lossy
Stream size                              : 258 MiB (6%)
Language                                 : French
Default                                  : Yes
Forced                                   : No

Text
ID                                       : 3
Format                                   : VobSub
Muxing mode                              : zlib
Codec ID                                 : S_VOBSUB
Codec ID/Info                            : The same subtitle format used on DVDs
Language                                 : English
Default                                  : Yes
Forced                                   : No